<?xml version="1.0" encoding="UTF-8" standalone="no"?>
<!-- Generator: Adobe Illustrator 16.0.0, SVG Export Plug-In . SVG Version: 6.00 Build 0)  -->

<svg
   xmlns:dc="http://purl.org/dc/elements/1.1/"
   xmlns:cc="http://creativecommons.org/ns#"
   xmlns:rdf="http://www.w3.org/1999/02/22-rdf-syntax-ns#"
   xmlns:svg="http://www.w3.org/2000/svg"
   xmlns="http://www.w3.org/2000/svg"
   xmlns:sodipodi="http://sodipodi.sourceforge.net/DTD/sodipodi-0.dtd"
   xmlns:inkscape="http://www.inkscape.org/namespaces/inkscape"
   version="1.1"
   id="Layer_1"
   x="0px"
   y="0px"
   width="15.615px"
   height="15.616px"
   viewBox="0 0 15.615 15.616"
   enable-background="new 0 0 15.615 15.616"
   xml:space="preserve"
   sodipodi:docname="settings.svg"
   inkscape:version="0.91 r13725"><metadata
     id="metadata9"><rdf:RDF><cc:Work
         rdf:about=""><dc:format>image/svg+xml</dc:format><dc:type
           rdf:resource="http://purl.org/dc/dcmitype/StillImage" /></cc:Work></rdf:RDF></metadata><defs
     id="defs7" /><sodipodi:namedview
     pagecolor="#ffffff"
     bordercolor="#666666"
     borderopacity="1"
     objecttolerance="10"
     gridtolerance="10"
     guidetolerance="10"
     inkscape:pageopacity="0"
     inkscape:pageshadow="2"
     inkscape:window-width="640"
     inkscape:window-height="480"
     id="namedview5"
     showgrid="false"
     inkscape:zoom="27.304392"
     inkscape:cx="6.1450169"
     inkscape:cy="7.0531879"
     inkscape:current-layer="Layer_1" /><path
     d="m 15.113638,7.0910064 c 0,-0.184527 -0.152689,-0.3353334 -0.335356,-0.3353334 l -0.618251,0 c -0.186411,0 -0.381255,-0.1442497 -0.432776,-0.3231567 L 12.887932,4.4729694 c -0.08899,-0.1601732 -0.05995,-0.3980914 0.07026,-0.5311009 l 0.417791,-0.416825 c 0.131144,-0.1311362 0.131144,-0.3437639 0,-0.4748999 L 12.370849,2.044143 c -0.130209,-0.1311359 -0.343787,-0.1311359 -0.477742,0 L 11.44066,2.4974989 c -0.133017,0.1330094 -0.373762,0.1686036 -0.53769,0.084302 L 9.1980919,1.8980199 C 9.0201103,1.8483755 8.8721045,1.6554182 8.8721045,1.4690179 l 0,-0.6322631 c 0,-0.18265376 -0.150816,-0.33439686 -0.3334814,-0.33439686 l -1.4238529,0 c -0.1845387,0 -0.3362913,0.1517431 -0.3362913,0.33439686 l 0,0.6322631 c 0,0.1864003 -0.1461324,0.3802943 -0.3222406,0.4355588 L 4.4797058,2.7504042 C 4.3204589,2.8431358 4.0843991,2.8122259 3.9523181,2.6829633 L 3.507364,2.2389736 c -0.1292707,-0.1301994 -0.3437855,-0.1301994 -0.4739931,0 L 2.0273064,3.2459109 c -0.1320812,0.131136 -0.1320812,0.3437637 0,0.4748999 l 0.4824238,0.4861399 c 0.1339547,0.1311362 0.169551,0.3709276 0.083371,0.5339108 L 1.9205176,6.4315796 C 1.8708705,6.6104868 1.6779005,6.755673 1.4914881,6.755673 l -0.67070972,0 c -0.18453882,0 -0.33441807,0.1508064 -0.33441807,0.3353334 l 0,1.422826 c 0,0.1854638 0.14987925,0.3372069 0.33441807,0.3372069 l 0.67070972,0 c 0.1864124,0 0.3812553,0.1442496 0.4346498,0.32222 l 0.8262094,1.9445597 c 0.094612,0.160174 0.06089,0.398092 -0.067446,0.528289 l -0.4627527,0.461789 c -0.1302077,0.131135 -0.1302077,0.343763 0,0.474898 l 1.0079378,1.006003 c 0.1311446,0.131136 0.3447225,0.131136 0.4730566,0 L 4.1977455,13.097036 C 4.3298266,12.9659 4.5668232,12.931244 4.7316904,13.019286 l 1.7245481,0.687527 c 0.1761082,0.05152 0.3222406,0.245412 0.3222406,0.429002 l 0,0.657554 c 0,0.185464 0.1517526,0.336268 0.3362913,0.336268 l 1.4238529,0 c 0.1826654,0 0.3334813,-0.150804 0.3334813,-0.336268 l 0,-0.657554 c 0,-0.18359 0.1461324,-0.377486 0.3259875,-0.431811 L 11.126848,12.88534 c 0.161124,-0.09085 0.395308,-0.05901 0.528329,0.07026 l 0.435584,0.438368 c 0.130208,0.130199 0.344722,0.130199 0.474929,0 l 1.007938,-1.007873 c 0.130209,-0.130199 0.130209,-0.344702 0,-0.473966 l -0.465562,-0.463655 c -0.128334,-0.131136 -0.164865,-0.370928 -0.07682,-0.533911 l 0.698812,-1.7394282 c 0.0487,-0.1779707 0.243553,-0.3231567 0.429965,-0.3250301 l 0.618252,0 c 0.182667,0 0.335355,-0.1508064 0.335355,-0.3353336 l 0,-1.4237627 z m -7.31317,3.1154166 c -1.3217478,0 -2.3905744,-1.0706313 -2.3905744,-2.3913583 0,-1.320727 1.0688266,-2.3904225 2.3905744,-2.3904225 1.3198741,0 2.392448,1.0696955 2.392448,2.3904225 0,1.320727 -1.0725739,2.3913583 -2.392448,2.3913583 z"
     id="path2"
     style="fill:#424242;fill-opacity:1;stroke:#414141;stroke-width:0.97272062;stroke-miterlimit:4;stroke-dasharray:none;stroke-opacity:1"
     inkscape:connector-curvature="0" /></svg>